ply
format ascii 1.0
comment Created by Blender 2.68 (sub 0) - www.blender.org, source file: ''
element vertex 97
property float x
property float y
property float z
property float nx
property float ny
property float nz
element face 154
property list uchar uint vertex_indices
end_header
0.000000 0.081969 -0.010701 0.000000 0.727866 -0.685690
0.000000 0.081969 1.546993 0.000000 0.727866 0.685690
0.015991 0.080394 1.546993 0.142003 0.713889 0.685690
0.015991 0.080394 -0.010701 0.142003 0.713889 -0.685690
0.031368 0.075729 1.546993 0.278542 0.672475 0.685690
0.031368 0.075729 -0.010701 0.278542 0.672475 -0.685690
0.045539 0.068155 1.546993 0.404370 0.605213 0.685690
0.045539 0.068155 -0.010701 0.404370 0.605213 -0.685690
0.057961 0.057961 1.546993 0.514664 0.514664 0.685690
0.057961 0.057961 -0.010701 0.514664 0.514664 -0.685690
0.068155 0.045539 1.546993 0.605213 0.404370 0.685690
0.068155 0.045539 -0.010701 0.605213 0.404370 -0.685690
0.075729 0.031368 1.546993 0.672475 0.278542 0.685690
0.075729 0.031368 -0.010701 0.672475 0.278542 -0.685690
0.080394 0.015991 1.546993 0.713889 0.142003 0.685690
0.080394 0.015991 -0.010701 0.713889 0.142003 -0.685690
0.081969 0.000000 1.546993 0.727866 0.000000 0.685690
0.081969 0.000000 -0.010701 0.727866 0.000000 -0.685690
0.080394 -0.015991 1.546993 0.713889 -0.142003 0.685690
0.080394 -0.015991 -0.010701 0.713889 -0.142003 -0.685690
0.075729 -0.031368 1.546993 0.672475 -0.278542 0.685690
0.075729 -0.031368 -0.010701 0.672475 -0.278542 -0.685690
0.068155 -0.045539 1.546993 0.605213 -0.404370 0.685690
0.068155 -0.045539 -0.010701 0.605213 -0.404370 -0.685690
0.057961 -0.057961 1.546993 0.514664 -0.514664 0.685690
0.057961 -0.057961 -0.010701 0.514664 -0.514664 -0.685690
0.045539 -0.068155 1.546993 0.404370 -0.605213 0.685690
0.045539 -0.068155 -0.010701 0.404370 -0.605213 -0.685690
0.031368 -0.075729 1.546993 0.278542 -0.672475 0.685690
0.031368 -0.075729 -0.010701 0.278542 -0.672475 -0.685690
0.015991 -0.080394 1.546993 0.142003 -0.713889 0.685690
0.015991 -0.080394 -0.010701 0.142003 -0.713889 -0.685690
-0.000000 -0.081969 1.546993 0.000000 -0.727866 0.685690
-0.000000 -0.081969 -0.010701 0.000000 -0.727866 -0.685690
-0.015991 -0.080394 1.546993 -0.142003 -0.713889 0.685690
-0.015991 -0.080394 -0.010701 -0.142003 -0.713889 -0.685690
-0.031368 -0.075729 1.546993 -0.278542 -0.672475 0.685690
-0.031368 -0.075729 -0.010701 -0.278542 -0.672475 -0.685690
-0.045539 -0.068155 1.546993 -0.404370 -0.605213 0.685690
-0.045539 -0.068155 -0.010701 -0.404370 -0.605213 -0.685690
-0.057961 -0.057961 1.546993 -0.514664 -0.514664 0.685690
-0.057961 -0.057961 -0.010701 -0.514664 -0.514664 -0.685690
-0.068155 -0.045539 1.546993 -0.605213 -0.404370 0.685690
-0.068155 -0.045539 -0.010701 -0.605213 -0.404370 -0.685690
-0.075729 -0.031368 1.546993 -0.672475 -0.278542 0.685690
-0.075729 -0.031368 -0.010701 -0.672475 -0.278542 -0.685690
-0.080394 -0.015991 1.546993 -0.713889 -0.142003 0.685690
-0.080394 -0.015991 -0.010701 -0.713889 -0.142003 -0.685690
-0.081969 0.000000 1.546993 -0.727866 0.000000 0.685690
-0.081969 0.000000 -0.010701 -0.727866 0.000000 -0.685690
-0.080394 0.015991 1.546993 -0.713889 0.142003 0.685690
-0.080394 0.015991 -0.010701 -0.713889 0.142003 -0.685690
-0.075729 0.031368 1.546993 -0.672475 0.278542 0.685690
-0.075729 0.031368 -0.010701 -0.672475 0.278542 -0.685690
-0.068154 0.045539 1.546993 -0.605213 0.404370 0.685690
-0.068154 0.045539 -0.010701 -0.605213 0.404370 -0.685690
-0.057961 0.057961 1.546993 -0.514664 0.514695 0.685690
-0.057961 0.057961 -0.010701 -0.514664 0.514695 -0.685690
-0.045539 0.068155 1.546993 -0.404370 0.605213 0.685690
-0.045539 0.068155 -0.010701 -0.404370 0.605213 -0.685690
-0.031368 0.075729 1.546993 -0.278542 0.672475 0.685690
-0.031368 0.075729 -0.010701 -0.278542 0.672475 -0.685690
-0.015991 0.080394 1.546993 -0.142003 0.713889 0.685690
-0.015991 0.080394 -0.010701 -0.142003 0.713889 -0.685690
-0.071059 0.171553 1.479602 -0.330668 0.798334 -0.503281
0.000000 0.000000 1.850976 0.000000 0.000000 1.000000
-0.036226 0.182119 1.479602 -0.168554 0.847499 -0.503281
0.000000 0.185687 1.479602 0.000000 0.864101 -0.503281
0.036226 0.182119 1.479602 0.168554 0.847499 -0.503281
0.071059 0.171553 1.479602 0.330668 0.798334 -0.503281
-0.103162 0.154393 1.479602 -0.480056 0.718467 -0.503281
-0.131301 0.131301 1.479602 -0.611011 0.611011 -0.503281
-0.154393 0.103163 1.479602 -0.718467 0.480056 -0.503281
-0.171553 0.071060 1.479602 -0.798334 0.330668 -0.503281
-0.182119 0.036226 1.479602 -0.847499 0.168554 -0.503281
-0.185687 0.000000 1.479602 -0.864101 0.000000 -0.503281
-0.182119 -0.036226 1.479602 -0.847499 -0.168554 -0.503281
-0.171553 -0.071059 1.479602 -0.798334 -0.330668 -0.503281
-0.154393 -0.103162 1.479602 -0.718467 -0.480056 -0.503281
-0.131301 -0.131301 1.479602 -0.611011 -0.611011 -0.503281
-0.103162 -0.154393 1.479602 -0.480056 -0.718467 -0.503281
-0.071060 -0.171553 1.479602 -0.330668 -0.798334 -0.503281
-0.036226 -0.182119 1.479602 -0.168554 -0.847499 -0.503281
-0.000000 -0.185687 1.479602 0.000000 -0.864101 -0.503281
0.036226 -0.182119 1.479602 0.168554 -0.847499 -0.503281
0.071059 -0.171553 1.479602 0.330668 -0.798334 -0.503281
0.103162 -0.154393 1.479602 0.480056 -0.718467 -0.503281
0.131301 -0.131301 1.479602 0.611011 -0.611011 -0.503281
0.154393 -0.103162 1.479602 0.718467 -0.480056 -0.503281
0.171553 -0.071059 1.479602 0.798334 -0.330668 -0.503281
0.182119 -0.036226 1.479602 0.847499 -0.168554 -0.503281
0.185687 0.000000 1.479602 0.864101 0.000000 -0.503281
0.182119 0.036226 1.479602 0.847499 0.168554 -0.503281
0.171553 0.071059 1.479602 0.798334 0.330668 -0.503281
0.154393 0.103162 1.479602 0.718467 0.480056 -0.503281
0.131301 0.131301 1.479602 0.611011 0.611011 -0.503281
0.103162 0.154393 1.479602 0.480056 0.718467 -0.503281
4 0 1 2 3
4 3 2 4 5
4 5 4 6 7
4 7 6 8 9
4 9 8 10 11
4 11 10 12 13
4 13 12 14 15
4 15 14 16 17
4 17 16 18 19
4 19 18 20 21
4 21 20 22 23
4 23 22 24 25
4 25 24 26 27
4 27 26 28 29
4 29 28 30 31
4 31 30 32 33
4 33 32 34 35
4 35 34 36 37
4 37 36 38 39
4 39 38 40 41
4 41 40 42 43
4 43 42 44 45
4 45 44 46 47
4 47 46 48 49
4 49 48 50 51
4 51 50 52 53
4 53 52 54 55
4 55 54 56 57
4 57 56 58 59
4 59 58 60 61
3 2 1 62
3 2 62 60
3 2 60 4
3 60 58 4
3 58 6 4
3 58 56 6
3 56 8 6
3 56 54 8
3 54 10 8
3 54 52 10
3 52 12 10
3 52 50 12
3 50 14 12
3 50 48 14
3 48 16 14
3 48 46 16
3 46 18 16
3 46 44 18
3 44 20 18
3 44 42 20
3 42 22 20
3 42 40 22
3 40 24 22
3 40 38 24
3 38 26 24
3 38 36 26
3 36 28 26
3 36 34 28
3 34 30 28
3 34 32 30
4 1 0 63 62
4 61 60 62 63
3 0 3 63
3 3 61 63
3 3 5 61
3 5 59 61
3 5 7 59
3 7 57 59
3 7 9 57
3 9 55 57
3 9 11 55
3 11 53 55
3 11 13 53
3 13 51 53
3 13 15 51
3 15 49 51
3 15 17 49
3 17 47 49
3 17 19 47
3 19 45 47
3 19 21 45
3 21 43 45
3 21 23 43
3 23 41 43
3 23 25 41
3 25 39 41
3 25 27 39
3 27 37 39
3 27 29 37
3 29 35 37
3 29 31 35
3 31 33 35
3 64 65 66
3 67 65 68
3 66 65 67
3 68 65 69
3 70 65 64
3 71 65 70
3 72 65 71
3 73 65 72
3 74 65 73
3 75 65 74
3 76 65 75
3 77 65 76
3 78 65 77
3 79 65 78
3 80 65 79
3 81 65 80
3 82 65 81
3 83 65 82
3 84 65 83
3 85 65 84
3 86 65 85
3 87 65 86
3 88 65 87
3 89 65 88
3 90 65 89
3 91 65 90
3 92 65 91
3 93 65 92
3 94 65 93
3 95 65 94
3 96 65 95
3 69 65 96
3 67 68 66
3 68 64 66
3 68 69 64
3 69 70 64
3 69 96 70
3 96 71 70
3 96 95 71
3 95 72 71
3 95 94 72
3 94 73 72
3 94 93 73
3 93 74 73
3 93 92 74
3 92 75 74
3 92 91 75
3 91 76 75
3 91 90 76
3 90 77 76
3 90 89 77
3 89 78 77
3 89 88 78
3 88 79 78
3 88 87 79
3 87 80 79
3 87 86 80
3 86 81 80
3 86 85 81
3 85 82 81
3 85 84 82
3 84 83 82
