ply
format ascii 1.0
comment Created by Blender 2.67 (sub 0) - www.blender.org, source file: 'arrow.blend'
element vertex 320
property float x
property float y
property float z
property float nx
property float ny
property float nz
property uchar red
property uchar green
property uchar blue
element face 154
property list uchar uint vertex_indices
end_header
-0.068151 0.164531 1.246290 -0.259887 0.856737 0.445488 112 109 111
0.000000 0.000000 1.602463 -0.259887 0.856737 0.445488 112 109 111
-0.034743 0.174665 1.246290 -0.259887 0.856737 0.445488 112 109 111
0.000000 0.178087 1.246290 0.087754 0.890977 0.445488 112 109 111
0.000000 0.000000 1.602463 0.087754 0.890977 0.445488 112 109 111
0.034743 0.174665 1.246290 0.087754 0.890977 0.445488 112 109 111
0.000000 0.000000 1.602463 -0.087753 0.890977 0.445488 112 109 111
0.000000 0.178087 1.246290 -0.087753 0.890977 0.445488 112 109 111
-0.034743 0.174665 1.246290 -0.087753 0.890977 0.445488 112 109 111
0.034743 0.174665 1.246290 0.259888 0.856737 0.445488 112 109 111
0.000000 0.000000 1.602463 0.259888 0.856737 0.445488 112 109 111
0.068151 0.164531 1.246290 0.259888 0.856737 0.445488 112 109 111
-0.098939 0.148074 1.246290 -0.422035 0.789574 0.445488 112 109 111
0.000000 0.000000 1.602463 -0.422035 0.789574 0.445488 112 109 111
-0.068151 0.164531 1.246290 -0.422035 0.789574 0.445488 112 109 111
-0.125926 0.125926 1.246290 -0.567963 0.692068 0.445488 112 109 111
0.000000 0.000000 1.602463 -0.567963 0.692068 0.445488 112 109 111
-0.098939 0.148074 1.246290 -0.567963 0.692068 0.445488 112 109 111
-0.148074 0.098940 1.246290 -0.692066 0.567965 0.445488 112 109 111
0.000000 0.000000 1.602463 -0.692066 0.567965 0.445488 112 109 111
-0.125926 0.125926 1.246290 -0.692066 0.567965 0.445488 112 109 111
-0.164531 0.068151 1.246290 -0.789573 0.422036 0.445488 112 109 111
0.000000 0.000000 1.602463 -0.789573 0.422036 0.445488 112 109 111
-0.148074 0.098940 1.246290 -0.789573 0.422036 0.445488 112 109 111
-0.174665 0.034743 1.246290 -0.856737 0.259889 0.445488 112 109 111
0.000000 0.000000 1.602463 -0.856737 0.259889 0.445488 112 109 111
-0.164531 0.068151 1.246290 -0.856737 0.259889 0.445488 112 109 111
-0.178087 0.000000 1.246290 -0.890977 0.087754 0.445488 112 109 111
0.000000 0.000000 1.602463 -0.890977 0.087754 0.445488 112 109 111
-0.174665 0.034743 1.246290 -0.890977 0.087754 0.445488 112 109 111
-0.174665 -0.034743 1.246290 -0.890977 -0.087753 0.445488 112 109 111
0.000000 0.000000 1.602463 -0.890977 -0.087753 0.445488 112 109 111
-0.178087 0.000000 1.246290 -0.890977 -0.087753 0.445488 112 109 111
-0.164531 -0.068151 1.246290 -0.856737 -0.259887 0.445488 112 109 111
0.000000 0.000000 1.602463 -0.856737 -0.259887 0.445488 112 109 111
-0.174665 -0.034743 1.246290 -0.856737 -0.259887 0.445488 112 109 111
-0.148074 -0.098940 1.246290 -0.789573 -0.422035 0.445488 112 109 111
0.000000 0.000000 1.602463 -0.789573 -0.422035 0.445488 112 109 111
-0.164531 -0.068151 1.246290 -0.789573 -0.422035 0.445488 112 109 111
-0.125926 -0.125926 1.246290 -0.692067 -0.567964 0.445488 112 109 111
0.000000 0.000000 1.602463 -0.692067 -0.567964 0.445488 112 109 111
-0.148074 -0.098940 1.246290 -0.692067 -0.567964 0.445488 112 109 111
-0.098940 -0.148074 1.246290 -0.567965 -0.692066 0.445488 112 109 111
0.000000 0.000000 1.602463 -0.567965 -0.692066 0.445488 112 109 111
-0.125926 -0.125926 1.246290 -0.567965 -0.692066 0.445488 112 109 111
-0.068151 -0.164531 1.246290 -0.422036 -0.789573 0.445488 112 109 111
0.000000 0.000000 1.602463 -0.422036 -0.789573 0.445488 112 109 111
-0.098940 -0.148074 1.246290 -0.422036 -0.789573 0.445488 112 109 111
-0.034743 -0.174665 1.246290 -0.259889 -0.856737 0.445488 112 109 111
0.000000 0.000000 1.602463 -0.259889 -0.856737 0.445488 112 109 111
-0.068151 -0.164531 1.246290 -0.259889 -0.856737 0.445488 112 109 111
-0.000000 -0.178087 1.246290 -0.087754 -0.890977 0.445488 112 109 111
0.000000 0.000000 1.602463 -0.087754 -0.890977 0.445488 112 109 111
-0.034743 -0.174665 1.246290 -0.087754 -0.890977 0.445488 112 109 111
0.034743 -0.174665 1.246290 0.087753 -0.890977 0.445488 112 109 111
0.000000 0.000000 1.602463 0.087753 -0.890977 0.445488 112 109 111
-0.000000 -0.178087 1.246290 0.087753 -0.890977 0.445488 112 109 111
0.068151 -0.164531 1.246290 0.259888 -0.856737 0.445488 112 109 111
0.000000 0.000000 1.602463 0.259888 -0.856737 0.445488 112 109 111
0.034743 -0.174665 1.246290 0.259888 -0.856737 0.445488 112 109 111
0.098940 -0.148074 1.246290 0.422036 -0.789573 0.445488 112 109 111
0.000000 0.000000 1.602463 0.422036 -0.789573 0.445488 112 109 111
0.068151 -0.164531 1.246290 0.422036 -0.789573 0.445488 112 109 111
0.125926 -0.125926 1.246290 0.567965 -0.692066 0.445488 112 109 111
0.000000 0.000000 1.602463 0.567965 -0.692066 0.445488 112 109 111
0.098940 -0.148074 1.246290 0.567965 -0.692066 0.445488 112 109 111
0.148074 -0.098940 1.246290 0.692066 -0.567965 0.445488 112 109 111
0.000000 0.000000 1.602463 0.692066 -0.567965 0.445488 112 109 111
0.125926 -0.125926 1.246290 0.692066 -0.567965 0.445488 112 109 111
0.164531 -0.068151 1.246290 0.789573 -0.422035 0.445488 112 109 111
0.000000 0.000000 1.602463 0.789573 -0.422035 0.445488 112 109 111
0.148074 -0.098940 1.246290 0.789573 -0.422035 0.445488 112 109 111
0.174665 -0.034743 1.246290 0.856737 -0.259888 0.445488 112 109 111
0.000000 0.000000 1.602463 0.856737 -0.259888 0.445488 112 109 111
0.164531 -0.068151 1.246290 0.856737 -0.259888 0.445488 112 109 111
0.178087 0.000000 1.246290 0.890977 -0.087753 0.445488 112 109 111
0.000000 0.000000 1.602463 0.890977 -0.087753 0.445488 112 109 111
0.174665 -0.034743 1.246290 0.890977 -0.087753 0.445488 112 109 111
0.174665 0.034743 1.246290 0.890977 0.087754 0.445488 112 109 111
0.000000 0.000000 1.602463 0.890977 0.087754 0.445488 112 109 111
0.178087 0.000000 1.246290 0.890977 0.087754 0.445488 112 109 111
0.164531 0.068151 1.246290 0.856737 0.259888 0.445488 112 109 111
0.000000 0.000000 1.602463 0.856737 0.259888 0.445488 112 109 111
0.174665 0.034743 1.246290 0.856737 0.259888 0.445488 112 109 111
0.148074 0.098940 1.246290 0.789573 0.422035 0.445488 112 109 111
0.000000 0.000000 1.602463 0.789573 0.422035 0.445488 112 109 111
0.164531 0.068151 1.246290 0.789573 0.422035 0.445488 112 109 111
0.125926 0.125926 1.246290 0.692066 0.567965 0.445488 112 109 111
0.000000 0.000000 1.602463 0.692066 0.567965 0.445488 112 109 111
0.148074 0.098940 1.246290 0.692066 0.567965 0.445488 112 109 111
0.098940 0.148074 1.246290 0.567965 0.692067 0.445488 112 109 111
0.000000 0.000000 1.602463 0.567965 0.692067 0.445488 112 109 111
0.125926 0.125926 1.246290 0.567965 0.692067 0.445488 112 109 111
0.068151 0.164531 1.246290 0.422036 0.789573 0.445488 112 109 111
0.000000 0.000000 1.602463 0.422036 0.789573 0.445488 112 109 111
0.098940 0.148074 1.246290 0.422036 0.789573 0.445488 112 109 111
0.000000 0.178087 1.246290 0.000000 0.000000 -1.000000 112 109 111
0.034743 0.174665 1.246290 0.000000 0.000000 -1.000000 112 109 111
-0.034743 0.174665 1.246290 0.000000 0.000000 -1.000000 112 109 111
-0.068151 0.164531 1.246290 0.000000 -0.000000 -1.000000 112 109 111
0.068151 0.164531 1.246290 0.000000 0.000000 -1.000000 112 109 111
-0.098939 0.148074 1.246290 0.000000 -0.000000 -1.000000 112 109 111
0.098940 0.148074 1.246290 0.000000 0.000000 -1.000000 112 109 111
-0.125926 0.125926 1.246290 0.000000 -0.000000 -1.000000 112 109 111
0.125926 0.125926 1.246290 0.000000 0.000000 -1.000000 112 109 111
-0.148074 0.098940 1.246290 0.000000 -0.000000 -1.000000 112 109 111
0.148074 0.098940 1.246290 0.000000 0.000000 -1.000000 112 109 111
-0.164531 0.068151 1.246290 0.000000 -0.000000 -1.000000 112 109 111
0.164531 0.068151 1.246290 0.000000 0.000000 -1.000000 112 109 111
-0.174665 0.034743 1.246290 0.000000 -0.000000 -1.000000 112 109 111
0.174665 0.034743 1.246290 0.000000 0.000000 -1.000000 112 109 111
-0.178087 0.000000 1.246290 0.000000 -0.000000 -1.000000 112 109 111
0.178087 0.000000 1.246290 0.000000 0.000000 -1.000000 112 109 111
-0.174665 -0.034743 1.246290 0.000000 0.000000 -1.000000 112 109 111
0.174665 -0.034743 1.246290 0.000000 0.000000 -1.000000 112 109 111
-0.164531 -0.068151 1.246290 0.000000 0.000000 -1.000000 112 109 111
0.164531 -0.068151 1.246290 0.000000 0.000000 -1.000000 112 109 111
-0.148074 -0.098940 1.246290 0.000000 0.000000 -1.000000 112 109 111
0.148074 -0.098940 1.246290 0.000000 0.000000 -1.000000 112 109 111
-0.125926 -0.125926 1.246290 0.000000 0.000000 -1.000000 112 109 111
0.125926 -0.125926 1.246290 0.000000 0.000000 -1.000000 112 109 111
-0.098940 -0.148074 1.246290 0.000000 0.000000 -1.000000 112 109 111
0.098940 -0.148074 1.246290 0.000000 0.000000 -1.000000 112 109 111
-0.068151 -0.164531 1.246290 0.000000 0.000000 -1.000000 112 109 111
0.068151 -0.164531 1.246290 0.000000 0.000000 -1.000000 112 109 111
-0.034743 -0.174665 1.246290 0.000000 0.000000 -1.000000 112 109 111
0.034743 -0.174665 1.246290 0.000000 0.000000 -1.000000 112 109 111
-0.000000 -0.178087 1.246290 0.000000 0.000000 -1.000000 112 109 111
0.000000 0.077160 0.000982 0.098017 0.995185 0.000000 112 109 111
0.000000 0.077160 1.332324 0.098017 0.995185 0.000000 112 109 111
0.015053 0.075677 1.332324 0.098017 0.995185 0.000000 112 109 111
0.015053 0.075677 0.000982 0.098017 0.995185 0.000000 112 109 111
0.015053 0.075677 0.000982 0.290284 0.956940 0.000000 112 109 111
0.015053 0.075677 1.332324 0.290284 0.956940 0.000000 112 109 111
0.029528 0.071286 1.332324 0.290284 0.956940 0.000000 112 109 111
0.029528 0.071286 0.000982 0.290284 0.956940 0.000000 112 109 111
0.029528 0.071286 0.000982 0.471397 0.881921 0.000000 112 109 111
0.029528 0.071286 1.332324 0.471397 0.881921 0.000000 112 109 111
0.042868 0.064156 1.332324 0.471397 0.881921 0.000000 112 109 111
0.042868 0.064156 0.000982 0.471397 0.881921 0.000000 112 109 111
0.042868 0.064156 0.000982 0.634393 0.773010 0.000000 112 109 111
0.042868 0.064156 1.332324 0.634393 0.773010 0.000000 112 109 111
0.054560 0.054560 1.332324 0.634393 0.773010 0.000000 112 109 111
0.054560 0.054560 0.000982 0.634393 0.773010 0.000000 112 109 111
0.054560 0.054560 0.000982 0.773010 0.634393 0.000000 112 109 111
0.054560 0.054560 1.332324 0.773010 0.634393 0.000000 112 109 111
0.064156 0.042868 1.332324 0.773010 0.634393 0.000000 112 109 111
0.064156 0.042868 0.000982 0.773010 0.634393 0.000000 112 109 111
0.064156 0.042868 0.000982 0.881921 0.471397 0.000000 112 109 111
0.064156 0.042868 1.332324 0.881921 0.471397 0.000000 112 109 111
0.071286 0.029528 1.332324 0.881921 0.471397 0.000000 112 109 111
0.071286 0.029528 0.000982 0.881921 0.471397 0.000000 112 109 111
0.071286 0.029528 0.000982 0.956940 0.290285 0.000000 112 109 111
0.071286 0.029528 1.332324 0.956940 0.290285 0.000000 112 109 111
0.075677 0.015053 1.332324 0.956940 0.290285 0.000000 112 109 111
0.075677 0.015053 0.000982 0.956940 0.290285 0.000000 112 109 111
0.075677 0.015053 0.000982 0.995185 0.098017 0.000000 112 109 111
0.075677 0.015053 1.332324 0.995185 0.098017 0.000000 112 109 111
0.077160 0.000000 1.332324 0.995185 0.098017 0.000000 112 109 111
0.077160 0.000000 0.000982 0.995185 0.098017 0.000000 112 109 111
0.077160 0.000000 0.000982 0.995185 -0.098017 0.000000 112 109 111
0.077160 0.000000 1.332324 0.995185 -0.098017 0.000000 112 109 111
0.075677 -0.015053 1.332324 0.995185 -0.098017 0.000000 112 109 111
0.075677 -0.015053 0.000982 0.995185 -0.098017 0.000000 112 109 111
0.075677 -0.015053 0.000982 0.956940 -0.290285 0.000000 112 109 111
0.075677 -0.015053 1.332324 0.956940 -0.290285 0.000000 112 109 111
0.071286 -0.029528 1.332324 0.956940 -0.290285 0.000000 112 109 111
0.071286 -0.029528 0.000982 0.956940 -0.290285 0.000000 112 109 111
0.071286 -0.029528 0.000982 0.881922 -0.471396 0.000000 112 109 111
0.071286 -0.029528 1.332324 0.881922 -0.471396 0.000000 112 109 111
0.064156 -0.042868 1.332324 0.881922 -0.471396 0.000000 112 109 111
0.064156 -0.042868 0.000982 0.881922 -0.471396 0.000000 112 109 111
0.064156 -0.042868 0.000982 0.773010 -0.634393 0.000000 112 109 111
0.064156 -0.042868 1.332324 0.773010 -0.634393 0.000000 112 109 111
0.054560 -0.054560 1.332324 0.773010 -0.634393 0.000000 112 109 111
0.054560 -0.054560 0.000982 0.773010 -0.634393 0.000000 112 109 111
0.054560 -0.054560 0.000982 0.634393 -0.773010 0.000000 112 109 111
0.054560 -0.054560 1.332324 0.634393 -0.773010 0.000000 112 109 111
0.042868 -0.064156 1.332324 0.634393 -0.773010 0.000000 112 109 111
0.042868 -0.064156 0.000982 0.634393 -0.773010 0.000000 112 109 111
0.042868 -0.064156 0.000982 0.471397 -0.881921 0.000000 112 109 111
0.042868 -0.064156 1.332324 0.471397 -0.881921 0.000000 112 109 111
0.029528 -0.071286 1.332324 0.471397 -0.881921 0.000000 112 109 111
0.029528 -0.071286 0.000982 0.471397 -0.881921 0.000000 112 109 111
0.029528 -0.071286 0.000982 0.290284 -0.956940 0.000000 112 109 111
0.029528 -0.071286 1.332324 0.290284 -0.956940 0.000000 112 109 111
0.015053 -0.075677 1.332324 0.290284 -0.956940 0.000000 112 109 111
0.015053 -0.075677 0.000982 0.290284 -0.956940 0.000000 112 109 111
0.015053 -0.075677 0.000982 0.098017 -0.995185 0.000000 112 109 111
0.015053 -0.075677 1.332324 0.098017 -0.995185 0.000000 112 109 111
-0.000000 -0.077160 1.332324 0.098017 -0.995185 0.000000 112 109 111
-0.000000 -0.077160 0.000982 0.098017 -0.995185 0.000000 112 109 111
-0.000000 -0.077160 0.000982 -0.098017 -0.995185 0.000000 112 109 111
-0.000000 -0.077160 1.332324 -0.098017 -0.995185 0.000000 112 109 111
-0.015053 -0.075677 1.332324 -0.098017 -0.995185 0.000000 112 109 111
-0.015053 -0.075677 0.000982 -0.098017 -0.995185 0.000000 112 109 111
-0.015053 -0.075677 0.000982 -0.290285 -0.956940 0.000000 112 109 111
-0.015053 -0.075677 1.332324 -0.290285 -0.956940 0.000000 112 109 111
-0.029528 -0.071286 1.332324 -0.290285 -0.956940 0.000000 112 109 111
-0.029528 -0.071286 0.000982 -0.290285 -0.956940 0.000000 112 109 111
-0.029528 -0.071286 0.000982 -0.471397 -0.881921 0.000000 112 109 111
-0.029528 -0.071286 1.332324 -0.471397 -0.881921 0.000000 112 109 111
-0.042868 -0.064156 1.332324 -0.471397 -0.881921 0.000000 112 109 111
-0.042868 -0.064156 0.000982 -0.471397 -0.881921 0.000000 112 109 111
-0.042868 -0.064156 0.000982 -0.634394 -0.773010 0.000000 112 109 111
-0.042868 -0.064156 1.332324 -0.634394 -0.773010 0.000000 112 109 111
-0.054560 -0.054560 1.332324 -0.634394 -0.773010 0.000000 112 109 111
-0.054560 -0.054560 0.000982 -0.634394 -0.773010 0.000000 112 109 111
-0.054560 -0.054560 0.000982 -0.773011 -0.634393 0.000000 112 109 111
-0.054560 -0.054560 1.332324 -0.773011 -0.634393 0.000000 112 109 111
-0.064156 -0.042868 1.332324 -0.773011 -0.634393 0.000000 112 109 111
-0.064156 -0.042868 0.000982 -0.773011 -0.634393 0.000000 112 109 111
-0.064156 -0.042868 0.000982 -0.881922 -0.471396 0.000000 112 109 111
-0.064156 -0.042868 1.332324 -0.881922 -0.471396 0.000000 112 109 111
-0.071286 -0.029528 1.332324 -0.881922 -0.471396 0.000000 112 109 111
-0.071286 -0.029528 0.000982 -0.881922 -0.471396 0.000000 112 109 111
-0.071286 -0.029528 0.000982 -0.956941 -0.290284 0.000000 112 109 111
-0.071286 -0.029528 1.332324 -0.956941 -0.290284 0.000000 112 109 111
-0.075677 -0.015053 1.332324 -0.956941 -0.290284 0.000000 112 109 111
-0.075677 -0.015053 0.000982 -0.956941 -0.290284 0.000000 112 109 111
-0.075677 -0.015053 0.000982 -0.995185 -0.098016 0.000000 112 109 111
-0.075677 -0.015053 1.332324 -0.995185 -0.098016 0.000000 112 109 111
-0.077160 0.000000 1.332324 -0.995185 -0.098016 0.000000 112 109 111
-0.077160 0.000000 0.000982 -0.995185 -0.098016 0.000000 112 109 111
-0.077160 0.000000 0.000982 -0.995185 0.098018 0.000000 112 109 111
-0.077160 0.000000 1.332324 -0.995185 0.098018 0.000000 112 109 111
-0.075677 0.015053 1.332324 -0.995185 0.098018 0.000000 112 109 111
-0.075677 0.015053 0.000982 -0.995185 0.098018 0.000000 112 109 111
-0.075677 0.015053 0.000982 -0.956940 0.290286 0.000000 112 109 111
-0.075677 0.015053 1.332324 -0.956940 0.290286 0.000000 112 109 111
-0.071286 0.029528 1.332324 -0.956940 0.290286 0.000000 112 109 111
-0.071286 0.029528 0.000982 -0.956940 0.290286 0.000000 112 109 111
-0.071286 0.029528 0.000982 -0.881921 0.471398 0.000000 112 109 111
-0.071286 0.029528 1.332324 -0.881921 0.471398 0.000000 112 109 111
-0.064156 0.042868 1.332324 -0.881921 0.471398 0.000000 112 109 111
-0.064156 0.042868 0.000982 -0.881921 0.471398 0.000000 112 109 111
-0.064156 0.042868 0.000982 -0.773010 0.634394 0.000000 112 109 111
-0.064156 0.042868 1.332324 -0.773010 0.634394 0.000000 112 109 111
-0.054560 0.054560 1.332324 -0.773010 0.634394 0.000000 112 109 111
-0.054560 0.054560 0.000982 -0.773010 0.634394 0.000000 112 109 111
-0.054560 0.054560 0.000982 -0.634392 0.773011 0.000000 112 109 111
-0.054560 0.054560 1.332324 -0.634392 0.773011 0.000000 112 109 111
-0.042868 0.064156 1.332324 -0.634392 0.773011 0.000000 112 109 111
-0.042868 0.064156 0.000982 -0.634392 0.773011 0.000000 112 109 111
-0.042868 0.064156 0.000982 -0.471396 0.881922 0.000000 112 109 111
-0.042868 0.064156 1.332324 -0.471396 0.881922 0.000000 112 109 111
-0.029528 0.071286 1.332324 -0.471396 0.881922 0.000000 112 109 111
-0.029528 0.071286 0.000982 -0.471396 0.881922 0.000000 112 109 111
0.015053 0.075677 1.332324 -0.000000 0.000000 1.000000 255 255 255
0.000000 0.077160 1.332324 -0.000000 0.000000 1.000000 255 255 255
-0.015053 0.075677 1.332324 -0.000000 0.000000 1.000000 255 255 255
-0.029528 0.071286 1.332324 -0.000000 0.000000 1.000000 255 255 255
0.029528 0.071286 1.332324 0.000000 -0.000000 1.000000 255 255 255
-0.042868 0.064156 1.332324 0.000000 -0.000000 1.000000 255 255 255
0.042868 0.064156 1.332324 0.000000 0.000000 1.000000 255 255 255
-0.054560 0.054560 1.332324 0.000000 -0.000000 1.000000 255 255 255
0.054560 0.054560 1.332324 0.000000 0.000000 1.000000 255 255 255
-0.064156 0.042868 1.332324 0.000000 -0.000000 1.000000 255 255 255
0.064156 0.042868 1.332324 0.000000 0.000000 1.000000 255 255 255
-0.071286 0.029528 1.332324 0.000000 -0.000000 1.000000 255 255 255
0.071286 0.029528 1.332324 0.000000 0.000000 1.000000 255 255 255
-0.075677 0.015053 1.332324 0.000000 -0.000000 1.000000 255 255 255
0.075677 0.015053 1.332324 0.000000 0.000000 1.000000 255 255 255
-0.077160 0.000000 1.332324 0.000000 -0.000000 1.000000 255 255 255
0.077160 0.000000 1.332324 0.000000 0.000000 1.000000 255 255 255
-0.075677 -0.015053 1.332324 0.000000 0.000000 1.000000 255 255 255
0.075677 -0.015053 1.332324 0.000000 0.000000 1.000000 255 255 255
-0.071286 -0.029528 1.332324 0.000000 0.000000 1.000000 255 255 255
0.071286 -0.029528 1.332324 0.000000 0.000000 1.000000 255 255 255
-0.064156 -0.042868 1.332324 0.000000 0.000000 1.000000 255 255 255
0.064156 -0.042868 1.332324 0.000000 0.000000 1.000000 255 255 255
-0.054560 -0.054560 1.332324 0.000000 0.000000 1.000000 255 255 255
0.054560 -0.054560 1.332324 0.000000 0.000000 1.000000 255 255 255
-0.042868 -0.064156 1.332324 0.000000 0.000000 1.000000 255 255 255
0.042868 -0.064156 1.332324 0.000000 0.000000 1.000000 255 255 255
-0.029528 -0.071286 1.332324 0.000000 0.000000 1.000000 255 255 255
0.029528 -0.071286 1.332324 0.000000 0.000000 1.000000 255 255 255
-0.015053 -0.075677 1.332324 0.000000 0.000000 1.000000 255 255 255
0.015053 -0.075677 1.332324 0.000000 0.000000 1.000000 255 255 255
-0.000000 -0.077160 1.332324 0.000000 0.000000 1.000000 255 255 255
-0.015053 0.075677 0.000982 -0.098017 0.995185 0.000000 112 109 111
-0.015053 0.075677 1.332324 -0.098017 0.995185 0.000000 112 109 111
0.000000 0.077160 1.332324 -0.098017 0.995185 0.000000 112 109 111
0.000000 0.077160 0.000982 -0.098017 0.995185 0.000000 112 109 111
-0.029528 0.071286 0.000982 -0.290283 0.956941 0.000000 112 109 111
-0.029528 0.071286 1.332324 -0.290283 0.956941 0.000000 112 109 111
-0.015053 0.075677 1.332324 -0.290283 0.956941 0.000000 112 109 111
-0.015053 0.075677 0.000982 -0.290283 0.956941 0.000000 112 109 111
0.000000 0.077160 0.000982 0.000000 0.000000 -1.000000 112 109 111
0.015053 0.075677 0.000982 0.000000 0.000000 -1.000000 112 109 111
-0.015053 0.075677 0.000982 0.000000 0.000000 -1.000000 112 109 111
-0.029528 0.071286 0.000982 0.000000 -0.000000 -1.000000 112 109 111
0.029528 0.071286 0.000982 0.000000 0.000000 -1.000000 112 109 111
-0.042868 0.064156 0.000982 0.000000 -0.000000 -1.000000 112 109 111
0.042868 0.064156 0.000982 0.000000 0.000000 -1.000000 112 109 111
-0.054560 0.054560 0.000982 0.000000 -0.000000 -1.000000 112 109 111
0.054560 0.054560 0.000982 0.000000 0.000000 -1.000000 112 109 111
-0.064156 0.042868 0.000982 0.000000 -0.000000 -1.000000 112 109 111
0.064156 0.042868 0.000982 0.000000 0.000000 -1.000000 112 109 111
-0.071286 0.029528 0.000982 0.000000 -0.000000 -1.000000 112 109 111
0.071286 0.029528 0.000982 0.000000 0.000000 -1.000000 112 109 111
-0.075677 0.015053 0.000982 0.000000 -0.000000 -1.000000 112 109 111
0.075677 0.015053 0.000982 0.000000 0.000000 -1.000000 112 109 111
-0.077160 0.000000 0.000982 0.000000 -0.000000 -1.000000 112 109 111
0.077160 0.000000 0.000982 0.000000 0.000000 -1.000000 112 109 111
-0.075677 -0.015053 0.000982 0.000000 0.000000 -1.000000 112 109 111
0.075677 -0.015053 0.000982 0.000000 0.000000 -1.000000 112 109 111
-0.071286 -0.029528 0.000982 0.000000 0.000000 -1.000000 112 109 111
0.071286 -0.029528 0.000982 0.000000 0.000000 -1.000000 112 109 111
-0.064156 -0.042868 0.000982 0.000000 0.000000 -1.000000 112 109 111
0.064156 -0.042868 0.000982 0.000000 0.000000 -1.000000 112 109 111
-0.054560 -0.054560 0.000982 0.000000 0.000000 -1.000000 112 109 111
0.054560 -0.054560 0.000982 0.000000 0.000000 -1.000000 112 109 111
-0.042868 -0.064156 0.000982 0.000000 0.000000 -1.000000 112 109 111
0.042868 -0.064156 0.000982 0.000000 0.000000 -1.000000 112 109 111
-0.029528 -0.071286 0.000982 0.000000 0.000000 -1.000000 112 109 111
0.029528 -0.071286 0.000982 0.000000 0.000000 -1.000000 112 109 111
-0.015053 -0.075677 0.000982 0.000000 0.000000 -1.000000 112 109 111
0.015053 -0.075677 0.000982 0.000000 0.000000 -1.000000 112 109 111
-0.000000 -0.077160 0.000982 0.000000 0.000000 -1.000000 112 109 111
3 0 1 2
3 3 4 5
3 6 7 8
3 9 10 11
3 12 13 14
3 15 16 17
3 18 19 20
3 21 22 23
3 24 25 26
3 27 28 29
3 30 31 32
3 33 34 35
3 36 37 38
3 39 40 41
3 42 43 44
3 45 46 47
3 48 49 50
3 51 52 53
3 54 55 56
3 57 58 59
3 60 61 62
3 63 64 65
3 66 67 68
3 69 70 71
3 72 73 74
3 75 76 77
3 78 79 80
3 81 82 83
3 84 85 86
3 87 88 89
3 90 91 92
3 93 94 95
3 96 97 98
3 97 99 98
3 97 100 99
3 100 101 99
3 100 102 101
3 102 103 101
3 102 104 103
3 104 105 103
3 104 106 105
3 106 107 105
3 106 108 107
3 108 109 107
3 108 110 109
3 110 111 109
3 110 112 111
3 112 113 111
3 112 114 113
3 114 115 113
3 114 116 115
3 116 117 115
3 116 118 117
3 118 119 117
3 118 120 119
3 120 121 119
3 120 122 121
3 122 123 121
3 122 124 123
3 124 125 123
3 124 126 125
3 126 127 125
4 128 129 130 131
4 132 133 134 135
4 136 137 138 139
4 140 141 142 143
4 144 145 146 147
4 148 149 150 151
4 152 153 154 155
4 156 157 158 159
4 160 161 162 163
4 164 165 166 167
4 168 169 170 171
4 172 173 174 175
4 176 177 178 179
4 180 181 182 183
4 184 185 186 187
4 188 189 190 191
4 192 193 194 195
4 196 197 198 199
4 200 201 202 203
4 204 205 206 207
4 208 209 210 211
4 212 213 214 215
4 216 217 218 219
4 220 221 222 223
4 224 225 226 227
4 228 229 230 231
4 232 233 234 235
4 236 237 238 239
4 240 241 242 243
4 244 245 246 247
3 248 249 250
3 248 250 251
3 248 251 252
3 251 253 252
3 253 254 252
3 253 255 254
3 255 256 254
3 255 257 256
3 257 258 256
3 257 259 258
3 259 260 258
3 259 261 260
3 261 262 260
3 261 263 262
3 263 264 262
3 263 265 264
3 265 266 264
3 265 267 266
3 267 268 266
3 267 269 268
3 269 270 268
3 269 271 270
3 271 272 270
3 271 273 272
3 273 274 272
3 273 275 274
3 275 276 274
3 275 277 276
3 277 278 276
3 277 279 278
4 280 281 282 283
4 284 285 286 287
3 288 289 290
3 289 291 290
3 289 292 291
3 292 293 291
3 292 294 293
3 294 295 293
3 294 296 295
3 296 297 295
3 296 298 297
3 298 299 297
3 298 300 299
3 300 301 299
3 300 302 301
3 302 303 301
3 302 304 303
3 304 305 303
3 304 306 305
3 306 307 305
3 306 308 307
3 308 309 307
3 308 310 309
3 310 311 309
3 310 312 311
3 312 313 311
3 312 314 313
3 314 315 313
3 314 316 315
3 316 317 315
3 316 318 317
3 318 319 317
