ply
format ascii 1.0
comment Created by Blender 2.67 (sub 0) - www.blender.org, source file: ''
element vertex 320
property float x
property float y
property float z
property float nx
property float ny
property float nz
element face 186
property list uchar uint vertex_indices
end_header
-0.003975 0.009598 0.163850 -0.259887 0.856737 0.445488
0.000000 0.000000 0.184627 -0.259887 0.856737 0.445488
-0.002027 0.010189 0.163850 -0.259887 0.856737 0.445488
0.000000 0.010388 0.163850 0.087753 0.890977 0.445488
0.000000 0.000000 0.184627 0.087753 0.890977 0.445488
0.002027 0.010189 0.163850 0.087753 0.890977 0.445488
0.000000 0.000000 0.184627 -0.087753 0.890977 0.445488
0.000000 0.010388 0.163850 -0.087753 0.890977 0.445488
-0.002027 0.010189 0.163850 -0.087753 0.890977 0.445488
0.002027 0.010189 0.163850 0.259888 0.856737 0.445488
0.000000 0.000000 0.184627 0.259888 0.856737 0.445488
0.003975 0.009598 0.163850 0.259888 0.856737 0.445488
-0.005771 0.008638 0.163850 -0.422035 0.789574 0.445488
0.000000 0.000000 0.184627 -0.422035 0.789574 0.445488
-0.003975 0.009598 0.163850 -0.422035 0.789574 0.445488
-0.007346 0.007346 0.163850 -0.567964 0.692068 0.445488
0.000000 0.000000 0.184627 -0.567964 0.692068 0.445488
-0.005771 0.008638 0.163850 -0.567964 0.692068 0.445488
-0.008638 0.005771 0.163850 -0.692066 0.567966 0.445488
0.000000 0.000000 0.184627 -0.692066 0.567966 0.445488
-0.007346 0.007346 0.163850 -0.692066 0.567966 0.445488
-0.009598 0.003975 0.163850 -0.789573 0.422036 0.445488
0.000000 0.000000 0.184627 -0.789573 0.422036 0.445488
-0.008638 0.005771 0.163850 -0.789573 0.422036 0.445488
-0.010189 0.002027 0.163850 -0.856737 0.259889 0.445488
0.000000 0.000000 0.184627 -0.856737 0.259889 0.445488
-0.009598 0.003975 0.163850 -0.856737 0.259889 0.445488
-0.010388 0.000000 0.163850 -0.890977 0.087754 0.445488
0.000000 0.000000 0.184627 -0.890977 0.087754 0.445488
-0.010189 0.002027 0.163850 -0.890977 0.087754 0.445488
-0.010189 -0.002027 0.163850 -0.890977 -0.087753 0.445488
0.000000 0.000000 0.184627 -0.890977 -0.087753 0.445488
-0.010388 0.000000 0.163850 -0.890977 -0.087753 0.445488
-0.009598 -0.003975 0.163850 -0.856737 -0.259887 0.445488
0.000000 0.000000 0.184627 -0.856737 -0.259887 0.445488
-0.010189 -0.002027 0.163850 -0.856737 -0.259887 0.445488
-0.008638 -0.005771 0.163850 -0.789573 -0.422035 0.445488
0.000000 0.000000 0.184627 -0.789573 -0.422035 0.445488
-0.009598 -0.003975 0.163850 -0.789573 -0.422035 0.445488
-0.007346 -0.007346 0.163850 -0.692067 -0.567964 0.445488
0.000000 0.000000 0.184627 -0.692067 -0.567964 0.445488
-0.008638 -0.005771 0.163850 -0.692067 -0.567964 0.445488
-0.005771 -0.008638 0.163850 -0.567965 -0.692066 0.445488
0.000000 0.000000 0.184627 -0.567965 -0.692066 0.445488
-0.007346 -0.007346 0.163850 -0.567965 -0.692066 0.445488
-0.003975 -0.009598 0.163850 -0.422036 -0.789573 0.445488
0.000000 0.000000 0.184627 -0.422036 -0.789573 0.445488
-0.005771 -0.008638 0.163850 -0.422036 -0.789573 0.445488
-0.002027 -0.010189 0.163850 -0.259889 -0.856737 0.445488
0.000000 0.000000 0.184627 -0.259889 -0.856737 0.445488
-0.003975 -0.009598 0.163850 -0.259889 -0.856737 0.445488
-0.000000 -0.010388 0.163850 -0.087754 -0.890977 0.445488
0.000000 0.000000 0.184627 -0.087754 -0.890977 0.445488
-0.002027 -0.010189 0.163850 -0.087754 -0.890977 0.445488
0.002027 -0.010189 0.163850 0.087753 -0.890977 0.445488
0.000000 0.000000 0.184627 0.087753 -0.890977 0.445488
-0.000000 -0.010388 0.163850 0.087753 -0.890977 0.445488
0.003975 -0.009598 0.163850 0.259888 -0.856737 0.445488
0.000000 0.000000 0.184627 0.259888 -0.856737 0.445488
0.002027 -0.010189 0.163850 0.259888 -0.856737 0.445488
0.005771 -0.008638 0.163850 0.422036 -0.789573 0.445488
0.000000 0.000000 0.184627 0.422036 -0.789573 0.445488
0.003975 -0.009598 0.163850 0.422036 -0.789573 0.445488
0.007346 -0.007346 0.163850 0.567964 -0.692067 0.445488
0.000000 0.000000 0.184627 0.567964 -0.692067 0.445488
0.005771 -0.008638 0.163850 0.567964 -0.692067 0.445488
0.008638 -0.005771 0.163850 0.692067 -0.567964 0.445488
0.000000 0.000000 0.184627 0.692067 -0.567964 0.445488
0.007346 -0.007346 0.163850 0.692067 -0.567964 0.445488
0.009598 -0.003975 0.163850 0.789573 -0.422035 0.445488
0.000000 0.000000 0.184627 0.789573 -0.422035 0.445488
0.008638 -0.005771 0.163850 0.789573 -0.422035 0.445488
0.010189 -0.002027 0.163850 0.856737 -0.259889 0.445488
0.000000 0.000000 0.184627 0.856737 -0.259889 0.445488
0.009598 -0.003975 0.163850 0.856737 -0.259889 0.445488
0.010388 0.000000 0.163850 0.890977 -0.087753 0.445488
0.000000 0.000000 0.184627 0.890977 -0.087753 0.445488
0.010189 -0.002027 0.163850 0.890977 -0.087753 0.445488
0.010189 0.002027 0.163850 0.890977 0.087753 0.445488
0.000000 0.000000 0.184627 0.890977 0.087753 0.445488
0.010388 0.000000 0.163850 0.890977 0.087753 0.445488
0.009598 0.003975 0.163850 0.856737 0.259889 0.445488
0.000000 0.000000 0.184627 0.856737 0.259889 0.445488
0.010189 0.002027 0.163850 0.856737 0.259889 0.445488
0.008638 0.005771 0.163850 0.789573 0.422036 0.445488
0.000000 0.000000 0.184627 0.789573 0.422036 0.445488
0.009598 0.003975 0.163850 0.789573 0.422036 0.445488
0.007346 0.007346 0.163850 0.692067 0.567964 0.445488
0.000000 0.000000 0.184627 0.692067 0.567964 0.445488
0.008638 0.005771 0.163850 0.692067 0.567964 0.445488
0.005771 0.008638 0.163850 0.567965 0.692067 0.445488
0.000000 0.000000 0.184627 0.567965 0.692067 0.445488
0.007346 0.007346 0.163850 0.567965 0.692067 0.445488
0.003975 0.009598 0.163850 0.422036 0.789573 0.445488
0.000000 0.000000 0.184627 0.422036 0.789573 0.445488
0.005771 0.008638 0.163850 0.422036 0.789573 0.445488
-0.002027 0.010189 0.163850 -0.000000 0.000000 -1.000000
0.000000 0.010388 0.163850 -0.000000 0.000000 -1.000000
0.003975 0.009598 0.163850 -0.000000 0.000000 -1.000000
0.000000 0.006133 0.000022 0.098017 0.995185 0.000000
0.000000 0.006133 0.169626 0.098017 0.995185 0.000000
0.001196 0.006015 0.169626 0.098017 0.995185 0.000000
0.001196 0.006015 0.000022 0.290285 0.956940 0.000000
0.001196 0.006015 0.169626 0.290285 0.956940 0.000000
0.002347 0.005666 0.169626 0.290285 0.956940 0.000000
0.002347 0.005666 0.000022 0.471397 0.881921 0.000000
0.002347 0.005666 0.169626 0.471397 0.881921 0.000000
0.003407 0.005099 0.169626 0.471397 0.881921 0.000000
0.003407 0.005099 0.000022 0.634393 0.773010 0.000000
0.003407 0.005099 0.169626 0.634393 0.773010 0.000000
0.004336 0.004336 0.169626 0.634393 0.773010 0.000000
0.004336 0.004336 0.000022 0.773010 0.634393 0.000000
0.004336 0.004336 0.169626 0.773010 0.634393 0.000000
0.005099 0.003407 0.000022 0.773010 0.634393 0.000000
0.005099 0.003407 0.000022 0.881921 0.471397 0.000000
0.005099 0.003407 0.169626 0.881921 0.471397 0.000000
0.005666 0.002347 0.169626 0.881921 0.471397 0.000000
0.005666 0.002347 0.000022 0.956940 0.290285 0.000000
0.005666 0.002347 0.169626 0.956940 0.290285 0.000000
0.006015 0.001196 0.169626 0.956940 0.290285 0.000000
0.006015 0.001196 0.000022 0.995185 0.098017 0.000000
0.006015 0.001196 0.169626 0.995185 0.098017 0.000000
0.006133 0.000000 0.169626 0.995185 0.098017 0.000000
0.006133 0.000000 0.000022 0.995185 -0.098017 0.000000
0.006133 0.000000 0.169626 0.995185 -0.098017 0.000000
0.006015 -0.001196 0.169626 0.995185 -0.098017 0.000000
0.006015 -0.001196 0.000022 0.956940 -0.290285 0.000000
0.006015 -0.001196 0.169626 0.956940 -0.290285 0.000000
0.005666 -0.002347 0.169626 0.956940 -0.290285 0.000000
0.005666 -0.002347 0.000022 0.881921 -0.471397 0.000000
0.005666 -0.002347 0.169626 0.881921 -0.471397 0.000000
0.005099 -0.003407 0.169626 0.881921 -0.471397 0.000000
0.005099 -0.003407 0.000022 0.773010 -0.634393 0.000000
0.005099 -0.003407 0.169626 0.773010 -0.634393 0.000000
0.004336 -0.004336 0.169626 0.773010 -0.634393 0.000000
0.004336 -0.004336 0.000022 0.634393 -0.773010 0.000000
0.004336 -0.004336 0.169626 0.634393 -0.773010 0.000000
0.003407 -0.005099 0.000022 0.634393 -0.773010 0.000000
0.003407 -0.005099 0.000022 0.471397 -0.881921 0.000000
0.003407 -0.005099 0.169626 0.471397 -0.881921 0.000000
0.002347 -0.005666 0.169626 0.471397 -0.881921 0.000000
0.002347 -0.005666 0.000022 0.290284 -0.956940 0.000000
0.002347 -0.005666 0.169626 0.290284 -0.956940 0.000000
0.001196 -0.006015 0.169626 0.290284 -0.956940 0.000000
0.001196 -0.006015 0.000022 0.098017 -0.995185 0.000000
0.001196 -0.006015 0.169626 0.098017 -0.995185 0.000000
-0.000000 -0.006133 0.000022 0.098017 -0.995185 0.000000
-0.000000 -0.006133 0.000022 -0.098018 -0.995185 -0.000000
-0.000000 -0.006133 0.169626 -0.098018 -0.995185 -0.000000
-0.001196 -0.006015 0.169626 -0.098018 -0.995185 -0.000000
-0.001196 -0.006015 0.000022 -0.290285 -0.956940 -0.000000
-0.001196 -0.006015 0.169626 -0.290285 -0.956940 -0.000000
-0.002347 -0.005666 0.169626 -0.290285 -0.956940 -0.000000
-0.002347 -0.005666 0.000022 -0.471397 -0.881921 -0.000000
-0.002347 -0.005666 0.169626 -0.471397 -0.881921 -0.000000
-0.003407 -0.005099 0.169626 -0.471397 -0.881921 -0.000000
-0.003407 -0.005099 0.000022 -0.634394 -0.773010 -0.000000
-0.003407 -0.005099 0.169626 -0.634394 -0.773010 -0.000000
-0.004336 -0.004336 0.169626 -0.634394 -0.773010 -0.000000
-0.004336 -0.004336 0.000022 -0.773011 -0.634393 -0.000000
-0.004336 -0.004336 0.169626 -0.773011 -0.634393 -0.000000
-0.005099 -0.003407 0.000022 -0.773011 -0.634393 -0.000000
-0.005099 -0.003407 0.000022 -0.881922 -0.471396 -0.000000
-0.005099 -0.003407 0.169626 -0.881922 -0.471396 -0.000000
-0.005666 -0.002347 0.169626 -0.881922 -0.471396 -0.000000
-0.005666 -0.002347 0.000022 -0.956941 -0.290284 -0.000000
-0.005666 -0.002347 0.169626 -0.956941 -0.290284 -0.000000
-0.006015 -0.001196 0.169626 -0.956941 -0.290284 -0.000000
-0.006015 -0.001196 0.000022 -0.995185 -0.098016 -0.000000
-0.006015 -0.001196 0.169626 -0.995185 -0.098016 -0.000000
-0.006133 0.000000 0.169626 -0.995185 -0.098016 -0.000000
-0.006133 0.000000 0.000022 -0.995185 0.098018 0.000000
-0.006133 0.000000 0.169626 -0.995185 0.098018 0.000000
-0.006015 0.001196 0.169626 -0.995185 0.098018 0.000000
-0.006015 0.001196 0.000022 -0.956940 0.290286 0.000000
-0.006015 0.001196 0.169626 -0.956940 0.290286 0.000000
-0.005666 0.002347 0.169626 -0.956940 0.290286 0.000000
-0.005666 0.002347 0.000022 -0.881921 0.471397 0.000000
-0.005666 0.002347 0.169626 -0.881921 0.471397 0.000000
-0.005099 0.003407 0.169626 -0.881921 0.471397 0.000000
-0.005099 0.003407 0.000022 -0.773009 0.634395 0.000000
-0.005099 0.003407 0.169626 -0.773009 0.634395 0.000000
-0.004336 0.004336 0.169626 -0.773009 0.634395 0.000000
-0.004336 0.004336 0.000022 -0.634392 0.773011 0.000000
-0.004336 0.004336 0.169626 -0.634392 0.773011 0.000000
-0.003407 0.005099 0.169626 -0.634392 0.773011 0.000000
-0.003407 0.005099 0.000022 -0.471396 0.881922 0.000000
-0.003407 0.005099 0.169626 -0.471396 0.881922 0.000000
-0.002347 0.005666 0.169626 -0.471396 0.881922 0.000000
0.002347 0.005666 0.169626 0.000000 0.000000 1.000000
0.001196 0.006015 0.169626 0.000000 0.000000 1.000000
-0.001196 0.006015 0.169626 0.000000 0.000000 1.000000
-0.001196 0.006015 0.000022 -0.098016 0.995185 0.000000
-0.001196 0.006015 0.169626 -0.098016 0.995185 0.000000
0.000000 0.006133 0.000022 -0.098016 0.995185 0.000000
-0.002347 0.005666 0.000022 -0.290283 0.956941 0.000000
-0.002347 0.005666 0.169626 -0.290283 0.956941 0.000000
-0.001196 0.006015 0.169626 -0.290283 0.956941 0.000000
0.000000 0.006133 0.000022 0.000000 0.000000 -1.000000
0.001196 0.006015 0.000022 0.000000 0.000000 -1.000000
-0.001196 0.006015 0.000022 0.000000 0.000000 -1.000000
-0.003407 -0.005099 0.169626 0.000000 0.000000 1.000000
-0.002347 -0.005666 0.169626 0.000000 0.000000 1.000000
-0.005099 -0.003407 0.169626 0.000000 0.000000 1.000000
-0.000000 -0.006133 0.169626 0.098017 -0.995185 0.000000
0.009598 0.003975 0.163850 -0.000000 -0.000000 -1.000000
0.007346 0.007346 0.163850 0.000000 0.000000 -1.000000
0.005666 0.002347 0.169626 0.000000 0.000000 1.000000
0.005099 0.003407 0.169626 0.000000 0.000000 1.000000
0.004336 0.004336 0.169626 0.000000 0.000000 1.000000
0.010189 -0.002027 0.163850 -0.000000 -0.000000 -1.000000
0.010388 0.000000 0.163850 0.000000 0.000000 -1.000000
0.009598 -0.003975 0.163850 0.000000 0.000000 -1.000000
-0.006015 -0.001196 0.000022 0.000000 0.000000 -1.000000
-0.006015 0.001196 0.000022 0.000000 0.000000 -1.000000
-0.004336 0.004336 0.000022 0.000000 0.000000 -1.000000
0.002027 -0.010189 0.163850 -0.000000 -0.000000 -1.000000
0.005771 -0.008638 0.163850 0.000000 0.000000 -1.000000
0.003975 -0.009598 0.163850 0.000000 0.000000 -1.000000
0.007346 -0.007346 0.163850 0.000000 0.000000 -1.000000
-0.000000 -0.010388 0.163850 0.000000 0.000000 -1.000000
-0.003975 0.009598 0.163850 -0.000000 0.000000 -1.000000
-0.002027 -0.010189 0.163850 0.000000 0.000000 -1.000000
-0.010189 -0.002027 0.163850 0.000000 0.000000 -1.000000
-0.003975 -0.009598 0.163850 0.000000 0.000000 -1.000000
0.000000 0.006133 0.169626 -0.000000 0.000000 1.000000
-0.005771 0.008638 0.163850 -0.000000 0.000000 -1.000000
-0.007346 -0.007346 0.163850 -0.000000 -0.000000 -1.000000
-0.008638 -0.005771 0.163850 -0.000000 -0.000000 -1.000000
-0.007346 0.007346 0.163850 -0.000000 0.000000 -1.000000
-0.008638 0.005771 0.163850 -0.000000 0.000000 -1.000000
-0.009598 0.003975 0.163850 -0.000000 0.000000 -1.000000
0.005771 0.008638 0.163850 0.000000 0.000000 -1.000000
0.008638 0.005771 0.163850 0.000000 0.000000 -1.000000
-0.010388 0.000000 0.163850 0.000000 -0.000000 -1.000000
-0.010189 0.002027 0.163850 0.000000 -0.000000 -1.000000
0.001196 0.006015 0.000022 0.098017 0.995185 0.000000
0.002347 0.005666 0.000022 0.290285 0.956940 0.000000
0.003407 0.005099 0.000022 0.471397 0.881921 0.000000
0.004336 0.004336 0.000022 0.634393 0.773010 0.000000
0.004336 0.004336 0.000022 0.000000 0.000000 -1.000000
0.005099 0.003407 0.000022 0.000000 0.000000 -1.000000
0.005666 0.002347 0.000022 0.000000 0.000000 -1.000000
0.005666 0.002347 0.000022 0.881921 0.471397 0.000000
0.006015 0.001196 0.000022 0.956940 0.290285 0.000000
0.006133 0.000000 0.000022 0.995185 0.098017 0.000000
0.006015 -0.001196 0.000022 0.995185 -0.098017 0.000000
0.005666 -0.002347 0.000022 0.956940 -0.290285 0.000000
0.005099 -0.003407 0.000022 0.881921 -0.471397 0.000000
0.004336 -0.004336 0.000022 0.773010 -0.634393 0.000000
0.005666 -0.002347 0.169626 0.000000 0.000000 1.000000
0.006015 -0.001196 0.169626 0.000000 0.000000 1.000000
0.006133 0.000000 0.169626 0.000000 0.000000 1.000000
0.002347 -0.005666 0.000022 0.471397 -0.881921 0.000000
0.001196 -0.006015 0.000022 0.290284 -0.956940 0.000000
0.004336 -0.004336 0.169626 0.000000 0.000000 1.000000
0.005099 -0.003407 0.169626 0.000000 0.000000 1.000000
-0.001196 -0.006015 0.000022 -0.098018 -0.995185 0.000000
-0.002347 -0.005666 0.000022 -0.290285 -0.956940 0.000000
-0.003407 -0.005099 0.000022 -0.471397 -0.881921 0.000000
-0.004336 -0.004336 0.000022 -0.634394 -0.773010 0.000000
0.006015 0.001196 0.000022 0.000000 0.000000 -1.000000
0.006133 0.000000 0.000022 0.000000 0.000000 -1.000000
0.006015 -0.001196 0.000022 0.000000 0.000000 -1.000000
-0.005666 -0.002347 0.000022 -0.881922 -0.471396 0.000000
-0.006015 -0.001196 0.000022 -0.956941 -0.290284 0.000000
-0.006133 0.000000 0.000022 -0.995185 -0.098016 0.000000
-0.006015 0.001196 0.000022 -0.995185 0.098018 0.000000
-0.005666 0.002347 0.000022 -0.956940 0.290286 0.000000
-0.005099 0.003407 0.000022 -0.881921 0.471397 0.000000
-0.004336 0.004336 0.000022 -0.773009 0.634395 0.000000
-0.003407 0.005099 0.000022 -0.634392 0.773011 0.000000
-0.002347 0.005666 0.000022 -0.471396 0.881922 0.000000
-0.004336 0.004336 0.169626 0.000000 0.000000 1.000000
-0.005099 0.003407 0.169626 0.000000 0.000000 1.000000
-0.005666 0.002347 0.169626 0.000000 0.000000 1.000000
-0.003407 -0.005099 0.000022 0.000000 0.000000 -1.000000
-0.004336 -0.004336 0.000022 0.000000 0.000000 -1.000000
-0.005099 -0.003407 0.000022 0.000000 0.000000 -1.000000
-0.006015 -0.001196 0.169626 0.000000 0.000000 1.000000
-0.003407 0.005099 0.169626 0.000000 -0.000000 1.000000
-0.002347 -0.005666 0.000022 -0.000000 -0.000000 -1.000000
-0.005771 -0.008638 0.163850 0.000000 0.000000 -1.000000
-0.006133 0.000000 0.169626 0.000000 0.000000 1.000000
-0.005099 -0.003407 0.169626 -0.773011 -0.634393 0.000000
-0.004336 -0.004336 0.169626 0.000000 0.000000 1.000000
0.001196 -0.006015 0.169626 -0.000000 -0.000000 1.000000
-0.001196 -0.006015 0.169626 -0.000000 -0.000000 1.000000
-0.000000 -0.006133 0.169626 -0.000000 -0.000000 1.000000
0.003407 -0.005099 0.169626 0.000000 -0.000000 1.000000
0.002347 -0.005666 0.169626 0.000000 -0.000000 1.000000
0.005099 0.003407 0.169626 0.773010 0.634393 -0.000000
-0.005666 -0.002347 0.169626 0.000000 0.000000 1.000000
0.006015 0.001196 0.169626 0.000000 -0.000000 1.000000
0.003407 0.005099 0.169626 -0.000000 -0.000000 1.000000
0.008638 -0.005771 0.163850 0.000000 0.000000 -1.000000
-0.006015 0.001196 0.169626 0.000000 0.000000 1.000000
-0.001196 0.006015 0.000022 -0.290283 0.956941 0.000000
0.002347 0.005666 0.000022 0.000000 0.000000 -1.000000
0.003407 0.005099 0.000022 0.000000 0.000000 -1.000000
0.003407 -0.005099 0.169626 0.634393 -0.773010 0.000000
0.005666 -0.002347 0.000022 0.000000 0.000000 -1.000000
0.000000 0.006133 0.169626 -0.098016 0.995185 0.000000
0.005099 -0.003407 0.000022 0.000000 0.000000 -1.000000
0.004336 -0.004336 0.000022 0.000000 0.000000 -1.000000
-0.005666 -0.002347 0.000022 0.000000 0.000000 -1.000000
0.002027 0.010189 0.163850 0.000000 0.000000 -1.000000
-0.002347 0.005666 0.000022 0.000000 0.000000 -1.000000
0.003407 -0.005099 0.000022 0.000000 0.000000 -1.000000
0.002347 -0.005666 0.000022 0.000000 0.000000 -1.000000
0.001196 -0.006015 0.000022 0.000000 0.000000 -1.000000
-0.001196 -0.006015 0.000022 0.000000 0.000000 -1.000000
-0.000000 -0.006133 0.000022 0.000000 0.000000 -1.000000
-0.002347 0.005666 0.169626 0.000000 0.000000 1.000000
-0.006133 0.000000 0.000022 0.000000 0.000000 -1.000000
-0.003407 0.005099 0.000022 -0.000000 0.000000 -1.000000
0.010189 0.002027 0.163850 0.000000 0.000000 -1.000000
-0.005666 0.002347 0.000022 0.000000 0.000000 -1.000000
-0.005099 0.003407 0.000022 0.000000 0.000000 -1.000000
-0.009598 -0.003975 0.163850 0.000000 0.000000 -1.000000
3 0 1 2
3 3 4 5
3 6 7 8
3 9 10 11
3 12 13 14
3 15 16 17
3 18 19 20
3 21 22 23
3 24 25 26
3 27 28 29
3 30 31 32
3 33 34 35
3 36 37 38
3 39 40 41
3 42 43 44
3 45 46 47
3 48 49 50
3 51 52 53
3 54 55 56
3 57 58 59
3 60 61 62
3 63 64 65
3 66 67 68
3 69 70 71
3 72 73 74
3 75 76 77
3 78 79 80
3 81 82 83
3 84 85 86
3 87 88 89
3 90 91 92
3 93 94 95
3 96 97 98
3 99 100 101
3 102 103 104
3 105 106 107
3 108 109 110
3 111 112 113
3 114 115 116
3 117 118 119
3 120 121 122
3 123 124 125
3 126 127 128
3 129 130 131
3 132 133 134
3 135 136 137
3 138 139 140
3 141 142 143
3 144 145 146
3 147 148 149
3 150 151 152
3 153 154 155
3 156 157 158
3 159 160 161
3 162 163 164
3 165 166 167
3 168 169 170
3 171 172 173
3 174 175 176
3 177 178 179
3 180 181 182
3 183 184 185
3 186 187 188
3 189 190 191
3 192 193 194
3 195 196 197
3 198 199 200
3 201 202 203
3 145 204 146
3 205 96 98
3 206 205 98
3 207 208 209
3 210 96 205
3 211 210 205
3 210 212 96
3 213 214 215
3 216 96 212
3 217 218 216
3 219 217 216
3 219 216 212
3 96 216 220
3 221 96 220
3 221 220 222
3 223 222 224
3 190 225 191
3 226 221 222
3 227 228 224
3 229 226 222
3 230 229 231
3 229 222 231
3 231 222 223
3 98 232 206
3 206 233 205
3 223 234 235
3 231 223 235
3 236 99 101
3 237 102 104
3 238 105 107
3 239 108 110
3 240 241 242
3 243 114 116
3 244 117 119
3 245 120 122
3 246 123 125
3 247 126 128
3 248 129 131
3 249 132 134
3 250 251 252
3 253 138 140
3 254 141 143
3 255 256 250
3 257 147 149
3 258 150 152
3 259 153 155
3 260 156 158
3 261 262 263
3 264 162 164
3 265 165 167
3 266 168 170
3 267 171 173
3 268 174 176
3 269 177 179
3 270 180 182
3 271 183 185
3 272 186 188
3 273 274 275
3 276 277 278
3 279 189 191
3 280 273 191
3 273 275 191
3 278 213 281
3 224 282 227
3 275 279 191
3 283 279 275
3 160 284 161
3 202 189 279
3 203 202 279
3 285 201 203
3 228 223 224
3 286 287 288
3 286 202 287
3 189 202 286
3 289 286 290
3 255 286 289
3 286 255 250
3 112 291 113
3 286 250 252
3 279 292 203
3 293 286 252
3 207 286 293
3 294 189 209
3 189 286 209
3 286 207 209
3 212 295 219
3 275 296 283
3 297 195 197
3 199 298 200
3 298 299 200
3 299 240 200
3 200 240 242
3 136 300 137
3 200 242 301
3 242 261 301
3 193 302 194
3 263 301 261
3 301 303 200
3 303 304 200
3 213 278 305
3 97 306 98
3 200 304 307
3 304 308 307
3 308 309 310
3 307 308 310
3 311 310 312
3 307 310 215
3 281 276 278
3 191 313 280
3 213 311 281
3 214 213 314
3 311 213 310
3 315 307 215
3 213 215 310
3 205 316 211
3 214 317 215
3 317 318 215
3 228 319 223
